<?xml version="1.0" encoding="UTF-8" standalone="no"?>
<!-- Created with Inkscape (http://www.inkscape.org/) -->

<svg
   xmlns:dc="http://purl.org/dc/elements/1.1/"
   xmlns:cc="http://creativecommons.org/ns#"
   xmlns:rdf="http://www.w3.org/1999/02/22-rdf-syntax-ns#"
   xmlns:svg="http://www.w3.org/2000/svg"
   xmlns="http://www.w3.org/2000/svg"
   xmlns:sodipodi="http://sodipodi.sourceforge.net/DTD/sodipodi-0.dtd"
   xmlns:inkscape="http://www.inkscape.org/namespaces/inkscape"
   width="62.696968mm"
   height="52.873482mm"
   viewBox="0 0 62.696968 52.873482"
   version="1.1"
   id="svg8"
   inkscape:export-filename="C:\Users\parap\Desktop\logo-V1.png"
   inkscape:export-xdpi="200"
   inkscape:export-ydpi="200"
   inkscape:version="0.92.4 (5da689c313, 2019-01-14)"
   sodipodi:docname="logo-V1.svg">
  <defs
     id="defs2" />
  <sodipodi:namedview
     id="base"
     pagecolor="#ffffff"
     bordercolor="#666666"
     borderopacity="1.0"
     inkscape:pageopacity="0.0"
     inkscape:pageshadow="2"
     inkscape:zoom="1.979899"
     inkscape:cx="97.962035"
     inkscape:cy="30.812207"
     inkscape:document-units="mm"
     inkscape:current-layer="layer1"
     showgrid="false"
     fit-margin-top="0"
     fit-margin-left="0"
     fit-margin-right="0"
     fit-margin-bottom="0"
     inkscape:window-width="1920"
     inkscape:window-height="1027"
     inkscape:window-x="-8"
     inkscape:window-y="22"
     inkscape:window-maximized="1" />
  <metadata
     id="metadata5">
    <rdf:RDF>
      <cc:Work
         rdf:about="">
        <dc:format>image/svg+xml</dc:format>
        <dc:type
           rdf:resource="http://purl.org/dc/dcmitype/StillImage" />
        <dc:title />
      </cc:Work>
    </rdf:RDF>
  </metadata>
  <g
     inkscape:label="Calque 1"
     inkscape:groupmode="layer"
     id="layer1"
     transform="translate(-67.681278,-39.997784)">
    <g
       transform="translate(37.279453,1.4176266)"
       id="layer1-2"
       inkscape:label="Calque 1"
       style="fill:#303030;fill-opacity:1"><path
   inkscape:connector-curvature="0"
   id="path4529"
   d="m 54.791118,91.164297 c -1.363046,-0.43676 -2.822914,-1.89349 -7.950193,-7.93311 -10.323687,-12.16067 -14.078041,-16.764 -14.843425,-18.20001 -4.036727,-7.57367 -0.102616,-17.089009 8.289926,-20.050629 1.493123,-0.52691 2.395358,-0.66417 4.392623,-0.66828 3.807675,-0.008 6.195198,0.8575 9.389968,3.40334 0.999323,0.79633 2.015378,1.44788 2.2579,1.44788 0.242523,0 0.667764,-0.25225 0.944978,-0.56055 0.818772,-0.91059 3.573613,-2.74547 5.047671,-3.36204 5.373039,-2.247416 11.920068,-0.6676 15.944218,3.84739 4.00491,4.493419 4.84872,10.816839 2.12526,15.926559 -0.43409,0.81445 -4.25593,5.64756 -8.49298,10.74025 -11.692546,14.05379 -12.506999,14.92315 -14.499233,15.47658 -1.117616,0.31047 -1.454719,0.30176 -2.606713,-0.0674 z m 2.289007,-3.22108 c 0.831559,-0.43001 3.756422,-3.79145 13.023339,-14.96723 7.57358,-9.13364 7.51733,-9.05801 8.1894,-11.0114 2.09654,-6.09372 -2.05459,-13.035759 -8.60421,-14.389019 -3.049539,-0.63008 -6.483337,0.22073 -8.888821,2.20245 -2.250585,1.8541 -2.840894,2.22767 -3.806409,2.4088 -1.472826,0.2763 -2.898732,-0.2682 -4.568906,-1.7447 -4.608341,-4.07396 -10.614068,-4.11847 -15.070583,-0.11168 -2.535244,2.2794 -3.786387,5.043349 -3.786387,8.364649 0,1.94212 0.672632,4.25807 1.63399,5.62603 1.741462,2.478 18.243157,21.92309 19.661194,23.16814 1.079343,0.94768 1.210659,0.97456 2.217393,0.45396 z m -20.088476,-30.7286 c -0.484783,-0.58412 0.347028,-2.48243 1.791997,-4.089579 1.591648,-1.7703 3.408606,-2.68062 5.67667,-2.84409 2.359133,-0.17003 3.189509,0.0483 3.081181,0.81012 -0.0758,0.53305 -0.211272,0.57903 -1.500394,0.50918 -3.128714,-0.16951 -6.11528,1.60026 -7.427153,4.401169 -0.686692,1.46611 -1.134486,1.80098 -1.622301,1.2132 z m 12.606306,-4.058259 c -0.760799,-0.7941 -0.794835,-1.61162 -0.0671,-1.61162 0.686715,0 1.796759,1.09023 1.712031,1.68147 -0.120642,0.841879 -0.799039,0.813079 -1.644933,-0.0698 z m 37.084699,-3.74948 c -0.37069,-0.21591 -0.46302,-0.63638 -0.46302,-2.10862 v -1.83894 h -1.84278 c -1.5511,0 -1.88612,-0.081 -2.11666,-0.51177 -0.75856,-1.41737 -6e-5,-2.134056 2.25855,-2.134056 h 1.70089 v -1.70089 c 0,-1.80472 0.38015,-2.532445 1.32291,-2.532445 0.94277,0 1.32292,0.727725 1.32292,2.532445 v 1.70089 h 1.60489 c 1.98616,0 2.62844,0.31261 2.62844,1.279306 0,1.11502 -0.44799,1.36652 -2.43416,1.36652 h -1.79917 v 1.84278 c 0,1.5511 -0.081,1.88612 -0.51177,2.11666 -0.634,0.33931 -1.07345,0.33618 -1.67104,-0.0119 z"
   style="fill:#303030;fill-opacity:1;stroke:none;stroke-width:0.26458335;stroke-opacity:1" />

       /&gt;
    </g>
  </g>
</svg>
